<?xml version="1.0" encoding="utf-8"?>
<!-- Generator: Adobe Illustrator 19.0.0, SVG Export Plug-In . SVG Version: 6.00 Build 0)  -->
<svg version="1.1" id="Capa_1" xmlns="http://www.w3.org/2000/svg" xmlns:xlink="http://www.w3.org/1999/xlink" x="0px" y="0px"
	 viewBox="420 228.5 464.8 384.4" style="enable-background:new 420 228.5 464.8 384.4;" xml:space="preserve">
<style type="text/css">
	.st0{fill:#0172B1;}
	.st1{fill:#FFFFFF;}
	.st2{fill:none;}
	.st3{fill:#7759A6;}
	.st4{fill:#3CBFBD;}
	.st5{fill:#3CBFBD;stroke:#000000;stroke-width:4;stroke-miterlimit:10;}
</style>
<circle class="st0" cx="653" cy="420.7" r="121.5"/>
<path class="st1" d="M752.9,478.8c1.7,0,3.2-1.4,3.2-3.2V339.2c0-1.7-1.4-3.2-3.2-3.2H553.1c-1.7,0-3.2,1.4-3.2,3.2v136.4
	c0,1.7,1.4,3.2,3.2,3.2h76.1h47.5H752.9L752.9,478.8z"/>
<path d="M752.9,331.1H553.1c-4.5,0-8.2,3.7-8.2,8.2v136.4c0,4.5,3.7,8.2,8.2,8.2h76.1v-5h-76.1c-1.7,0-3.2-1.4-3.2-3.2V339.2
	c0-1.7,1.4-3.2,3.2-3.2h199.7c1.7,0,3.2,1.4,3.2,3.2v136.4c0,1.7-1.4,3.2-3.2,3.2h-76.1v5h76.1c4.5,0,8.2-3.7,8.2-8.2V339.2
	C761,334.7,757.4,331.1,752.9,331.1z"/>
<path class="st1" d="M598.8,499.8v5.2c0,0.2,0.2,0.3,0.3,0.3h107.7c0.2,0,0.3-0.1,0.3-0.3v-5.2c0-0.2-0.1-0.3-0.3-0.3h-30.1h-47.5
	h-30.1C599,499.5,598.8,499.6,598.8,499.8z"/>
<path d="M676.8,499.5h30.1c0.2,0,0.3,0.2,0.3,0.3v5.2c0,0.2-0.1,0.3-0.3,0.3H599.1c-0.2,0-0.3-0.1-0.3-0.3v-5.2
	c0-0.2,0.2-0.3,0.3-0.3h30.1v-5h-30.1c-2.9,0-5.3,2.4-5.3,5.3v5.2c0,2.9,2.4,5.3,5.3,5.3h107.7c2.9,0,5.3-2.4,5.3-5.3v-5.2
	c0-2.9-2.4-5.3-5.3-5.3h-30.1L676.8,499.5L676.8,499.5z"/>
<rect x="634.2" y="483.8" class="st1" width="37.5" height="10.7"/>
<path d="M676.8,478.8h-47.5v5v10.7v5h47.5v-5v-10.7V478.8z M671.8,494.5h-37.5v-10.7h37.5V494.5z"/>
<g>
	<g>
		<line class="st2" x1="632.3" y1="372" x2="567" y2="372"/>
		<path class="st3" d="M632.3,374.5H567c-1.4,0-2.5-1.1-2.5-2.5s1.1-2.5,2.5-2.5h65.3c1.4,0,2.5,1.1,2.5,2.5
			S633.7,374.5,632.3,374.5z"/>
	</g>
	<g>
		<line class="st2" x1="622.8" y1="387" x2="567" y2="387"/>
		<path class="st4" d="M622.8,389.5H567c-1.4,0-2.5-1.1-2.5-2.5s1.1-2.5,2.5-2.5h55.8c1.4,0,2.5,1.1,2.5,2.5
			S624.2,389.5,622.8,389.5z"/>
	</g>
	<g>
		<line class="st2" x1="632.3" y1="357" x2="567" y2="357"/>
		<path class="st4" d="M632.3,359.5H567c-1.4,0-2.5-1.1-2.5-2.5s1.1-2.5,2.5-2.5h65.3c1.4,0,2.5,1.1,2.5,2.5
			C634.8,358.4,633.7,359.5,632.3,359.5z"/>
	</g>
	<g>
		<line class="st2" x1="632.3" y1="402" x2="567" y2="402"/>
		<path class="st4" d="M632.3,404.5H567c-1.4,0-2.5-1.1-2.5-2.5s1.1-2.5,2.5-2.5h65.3c1.4,0,2.5,1.1,2.5,2.5
			S633.7,404.5,632.3,404.5z"/>
	</g>
	<g>
		<line class="st2" x1="622.8" y1="416" x2="567" y2="416"/>
		<path class="st4" d="M622.8,418.5H567c-1.4,0-2.5-1.1-2.5-2.5s1.1-2.5,2.5-2.5h55.8c1.4,0,2.5,1.1,2.5,2.5
			S624.2,418.5,622.8,418.5z"/>
	</g>
	<g>
		<line class="st2" x1="632.3" y1="444" x2="567" y2="444"/>
		<path class="st4" d="M632.3,446.5H567c-1.4,0-2.5-1.1-2.5-2.5s1.1-2.5,2.5-2.5h65.3c1.4,0,2.5,1.1,2.5,2.5
			S633.7,446.5,632.3,446.5z"/>
	</g>
	<g>
		<line class="st2" x1="632.3" y1="458" x2="567" y2="458"/>
		<path class="st3" d="M632.3,460.5H567c-1.4,0-2.5-1.1-2.5-2.5s1.1-2.5,2.5-2.5h65.3c1.4,0,2.5,1.1,2.5,2.5
			S633.7,460.5,632.3,460.5z"/>
	</g>
	<g>
		<line class="st2" x1="663.3" y1="387" x2="635.4" y2="387"/>
		<path class="st3" d="M663.3,389.5h-27.9c-1.4,0-2.5-1.1-2.5-2.5s1.1-2.5,2.5-2.5h27.9c1.4,0,2.5,1.1,2.5,2.5
			S664.7,389.5,663.3,389.5z"/>
	</g>
	<g>
		<line class="st2" x1="679.7" y1="402" x2="647" y2="402"/>
		<path class="st4" d="M679.7,404.5h-32.6c-1.4,0-2.5-1.1-2.5-2.5s1.1-2.5,2.5-2.5h32.6c1.4,0,2.5,1.1,2.5,2.5
			S681,404.5,679.7,404.5z"/>
	</g>
	<g>
		<line class="st2" x1="663.3" y1="416" x2="635.4" y2="416"/>
		<path class="st3" d="M663.3,418.5h-27.9c-1.4,0-2.5-1.1-2.5-2.5s1.1-2.5,2.5-2.5h27.9c1.4,0,2.5,1.1,2.5,2.5
			S664.7,418.5,663.3,418.5z"/>
	</g>
	<g>
		<line class="st2" x1="616.6" y1="430" x2="567" y2="430"/>
		<path class="st4" d="M616.6,432.5H567c-1.4,0-2.5-1.1-2.5-2.5s1.1-2.5,2.5-2.5h49.6c1.4,0,2.5,1.1,2.5,2.5S618,432.5,616.6,432.5z
			"/>
	</g>
	<g>
		<line class="st2" x1="679.7" y1="444" x2="647" y2="444"/>
		<path class="st4" d="M679.7,446.5h-32.6c-1.4,0-2.5-1.1-2.5-2.5s1.1-2.5,2.5-2.5h32.6c1.4,0,2.5,1.1,2.5,2.5
			S681,446.5,679.7,446.5z"/>
	</g>
	<g>
		<line class="st2" x1="706.6" y1="458" x2="647" y2="458"/>
		<path class="st4" d="M706.6,460.5H647c-1.4,0-2.5-1.1-2.5-2.5s1.1-2.5,2.5-2.5h59.6c1.4,0,2.5,1.1,2.5,2.5S708,460.5,706.6,460.5z
			"/>
	</g>
	<g>
		<line class="st2" x1="706.6" y1="372" x2="644.8" y2="372"/>
		<path class="st4" d="M706.6,374.5h-61.8c-1.4,0-2.5-1.1-2.5-2.5s1.1-2.5,2.5-2.5h61.8c1.4,0,2.5,1.1,2.5,2.5
			S708,374.5,706.6,374.5z"/>
	</g>
	<g>
		<line class="st2" x1="720.6" y1="387" x2="675" y2="387"/>
		<path class="st4" d="M720.6,389.5H675c-1.4,0-2.5-1.1-2.5-2.5s1.1-2.5,2.5-2.5h45.6c1.4,0,2.5,1.1,2.5,2.5S722,389.5,720.6,389.5z
			"/>
	</g>
	<g>
		<line class="st2" x1="738.6" y1="416" x2="676.8" y2="416"/>
		<path class="st4" d="M738.6,418.5h-61.8c-1.4,0-2.5-1.1-2.5-2.5s1.1-2.5,2.5-2.5h61.8c1.4,0,2.5,1.1,2.5,2.5
			S740,418.5,738.6,418.5z"/>
	</g>
	<g>
		<line class="st2" x1="720.6" y1="444" x2="693" y2="444"/>
		<path class="st3" d="M720.6,446.5H693c-1.4,0-2.5-1.1-2.5-2.5s1.1-2.5,2.5-2.5h27.6c1.4,0,2.5,1.1,2.5,2.5S722,446.5,720.6,446.5z
			"/>
	</g>
</g>
<circle class="st5" cx="652.4" cy="407.7" r="39.6"/>
<g>
	<path d="M640.2,419.1c-0.5,0-1-0.2-1.3-0.5l-10.1-8.8c-0.4-0.4-0.7-1-0.7-1.6c0-0.6,0.2-1.1,0.7-1.6l10.1-8.8
		c0.8-0.7,2.1-0.7,2.9,0.2c0.7,0.8,0.7,2.1-0.2,2.9l-8.3,7.2l8.3,7.3c0.8,0.7,0.9,2,0.2,2.9C641.4,418.8,640.8,419.1,640.2,419.1z"
		/>
	<path d="M664.6,419.1c-0.6,0-1.1-0.2-1.6-0.7c-0.7-0.8-0.7-2.1,0.2-2.9l8.3-7.3l-8.3-7.2c-0.8-0.7-1-2-0.2-2.9c0.7-0.8,2-1,2.9-0.2
		l10.1,8.8c0.4,0.4,0.7,1,0.7,1.6c0,0.6-0.2,1.1-0.7,1.6l-10.1,8.8C665.6,418.9,665.1,419.1,664.6,419.1z"/>
	<path d="M649.1,423.5c-0.2,0-0.4,0-0.6-0.1c-1.1-0.3-1.7-1.5-1.4-2.5l8-27.5c0.3-1.1,1.5-1.7,2.5-1.4c1.1,0.3,1.7,1.5,1.4,2.5
		l-8,27.5C650.8,422.9,650,423.5,649.1,423.5z"/>
</g>
</svg>
